<svg width="26" height="26" viewBox="0 0 26 26" fill="none" xmlns="http://www.w3.org/2000/svg">
    <g clip-path="url(#clip0_120_18)">
        <path d="M9.19791 13.0524C9.35898 13.75 8.59374 14.2801 7.99844 13.908L5.96829 12.6394L3.43324 16.6962C2.77121 17.7555 3.5364 19.1373 4.78491 19.1373H7.37583C7.70609 19.1373 7.97387 19.4051 7.97387 19.7354V21.7288C7.97387 22.0591 7.70609 22.3269 7.37583 22.3269H4.79005C1.03564 22.3269 -1.25525 18.188 0.732933 15.0069L3.26574 10.9507L1.23614 9.68249C0.634057 9.30637 0.789299 8.38868 1.47929 8.22935L6.97314 6.961C7.40229 6.86193 7.83039 7.1295 7.92946 7.55855L9.19791 13.0524V13.0524ZM14.1099 3.93651L16.1676 7.22952L14.1372 8.49822C13.5366 8.87339 13.6887 9.79163 14.3804 9.95136L19.8742 11.2197C20.3064 11.3193 20.7322 11.0484 20.8306 10.6222L22.0989 5.12831C22.2582 4.43837 21.5014 3.89639 20.8994 4.27271L18.8717 5.53976L16.8153 2.24645C14.9454 -0.745406 10.5753 -0.752283 8.70108 2.24645L7.80587 3.68005C7.63094 3.96013 7.71616 4.32897 7.99624 4.504L9.68666 5.56029C9.96674 5.73532 10.3357 5.65015 10.5108 5.37007L11.4059 3.93761C12.0394 2.92388 13.4977 2.95702 14.1099 3.93651V3.93651ZM24.7832 15.0069L23.412 12.8108C23.237 12.5306 22.8679 12.4453 22.5878 12.6204L20.9002 13.6749C20.6201 13.8499 20.5349 14.2188 20.71 14.499L22.0837 16.6974C22.7443 17.7545 21.9811 19.1374 20.7313 19.1374H15.9477V16.7462C15.9477 16.0378 15.0885 15.6805 14.5866 16.1824L10.5996 20.1683C10.2882 20.4797 10.2882 20.9846 10.5996 21.296L14.5866 25.2824C15.085 25.781 15.9477 25.4317 15.9477 24.7185V22.3269H20.7261C24.4775 22.3269 26.773 18.1906 24.7832 15.0069Z"
              fill="#006649"/>
    </g>
    <defs>
        <clipPath id="clip0_120_18">
            <rect width="25.5164" height="25.5164" fill="white"/>
        </clipPath>
    </defs>
</svg>
