<svg width="77" height="26" viewBox="0 0 77 26" fill="none" xmlns="http://www.w3.org/2000/svg">
    <path d="M56.5395 7.41405C57.6717 7.41405 58.6821 7.64921 59.5704 8.11953C60.4762 8.58985 61.1817 9.28662 61.6869 10.2098C62.2094 11.1331 62.4707 12.2479 62.4707 13.5543V22.0462H59.5182V13.9985C59.5182 12.7095 59.1959 11.7253 58.5514 11.046C57.9069 10.3492 57.0272 10.0008 55.9124 10.0008C54.7976 10.0008 53.9092 10.3492 53.2473 11.046C52.6028 11.7253 52.2805 12.7095 52.2805 13.9985V22.0462H49.3279V13.9985C49.3279 12.7095 49.0057 11.7253 48.3612 11.046C47.7167 10.3492 46.837 10.0008 45.7222 10.0008C44.6073 10.0008 43.719 10.3492 43.057 11.046C42.4125 11.7253 42.0903 12.7095 42.0903 13.9985V22.0462H39.1116V7.64921H42.0903V9.29533C42.578 8.70308 43.1964 8.24147 43.9454 7.9105C44.6944 7.57954 45.4957 7.41405 46.3493 7.41405C47.4989 7.41405 48.5267 7.65792 49.4325 8.14566C50.3383 8.6334 51.035 9.33888 51.5228 10.2621C51.9582 9.39113 52.6376 8.70308 53.5608 8.19792C54.484 7.67534 55.4769 7.41405 56.5395 7.41405Z"
          fill="#006649"/>
    <path d="M71.4868 22.2814C70.3546 22.2814 69.3355 22.081 68.4297 21.6804C67.5414 21.2623 66.8359 20.7049 66.3133 20.0081C65.7907 19.294 65.512 18.5014 65.4772 17.6304H68.5604C68.6126 18.2401 68.9001 18.754 69.4226 19.172C69.9626 19.5727 70.6333 19.773 71.4346 19.773C72.2707 19.773 72.9152 19.6162 73.3681 19.3027C73.8384 18.9717 74.0736 18.5536 74.0736 18.0485C74.0736 17.5085 73.8123 17.1078 73.2897 16.8466C72.7845 16.5853 71.9745 16.2979 70.8597 15.9843C69.7797 15.6882 68.9001 15.4008 68.2207 15.1221C67.5414 14.8433 66.9491 14.4166 66.4439 13.8417C65.9562 13.2669 65.7123 12.5092 65.7123 11.5685C65.7123 10.8021 65.9388 10.1053 66.3917 9.47823C66.8446 8.83372 67.4891 8.32856 68.3252 7.96276C69.1788 7.59696 70.1542 7.41405 71.2517 7.41405C72.8891 7.41405 74.2042 7.83212 75.1971 8.66824C76.2074 9.48694 76.7474 10.6105 76.8171 12.0389H73.8384C73.7861 11.3943 73.5249 10.8805 73.0545 10.4973C72.5842 10.114 71.9484 9.92242 71.1471 9.92242C70.3633 9.92242 69.7623 10.0705 69.3442 10.3666C68.9262 10.6627 68.7172 11.0547 68.7172 11.5424C68.7172 11.9256 68.8565 12.2479 69.1352 12.5092C69.4139 12.7705 69.7536 12.9795 70.1542 13.1363C70.5549 13.2756 71.1471 13.4585 71.931 13.685C72.9762 13.9637 73.8297 14.2511 74.4916 14.5472C75.171 14.8259 75.7545 15.244 76.2423 15.8014C76.73 16.3588 76.9826 17.0991 77 18.0224C77 18.8411 76.7735 19.5727 76.3206 20.2172C75.8677 20.8617 75.2232 21.3668 74.3871 21.7326C73.5684 22.0985 72.6016 22.2814 71.4868 22.2814Z"
          fill="#006649"/>
    <g clip-path="url(#clip0_120_16)">
        <path d="M9.19791 13.0524C9.35898 13.75 8.59374 14.2801 7.99844 13.908L5.96829 12.6394L3.43324 16.6962C2.77121 17.7555 3.5364 19.1373 4.78491 19.1373H7.37583C7.70609 19.1373 7.97387 19.4051 7.97387 19.7354V21.7288C7.97387 22.0591 7.70609 22.3269 7.37583 22.3269H4.79005C1.03564 22.3269 -1.25525 18.188 0.732933 15.0069L3.26574 10.9507L1.23614 9.68249C0.634057 9.30637 0.789299 8.38868 1.47929 8.22935L6.97314 6.961C7.40229 6.86193 7.83039 7.1295 7.92946 7.55855L9.19791 13.0524ZM14.1099 3.93651L16.1676 7.22952L14.1372 8.49822C13.5366 8.87339 13.6887 9.79163 14.3804 9.95136L19.8742 11.2197C20.3064 11.3193 20.7322 11.0484 20.8306 10.6222L22.0989 5.12831C22.2582 4.43837 21.5014 3.89639 20.8994 4.27271L18.8717 5.53976L16.8153 2.24645C14.9454 -0.745406 10.5753 -0.752283 8.70109 2.24645L7.80587 3.68005C7.63094 3.96013 7.71616 4.32897 7.99624 4.504L9.68666 5.56029C9.96674 5.73532 10.3357 5.65015 10.5108 5.37007L11.4059 3.93761C12.0394 2.92388 13.4977 2.95702 14.1099 3.93651ZM24.7832 15.0069L23.412 12.8108C23.237 12.5306 22.8679 12.4453 22.5878 12.6204L20.9002 13.6749C20.6201 13.8499 20.5349 14.2188 20.71 14.499L22.0837 16.6974C22.7443 17.7545 21.9811 19.1374 20.7313 19.1374H15.9477V16.7462C15.9477 16.0378 15.0885 15.6805 14.5866 16.1824L10.5996 20.1683C10.2882 20.4797 10.2882 20.9846 10.5996 21.296L14.5866 25.2824C15.085 25.781 15.9477 25.4317 15.9477 24.7185V22.3269H20.7261C24.4775 22.3269 26.773 18.1906 24.7832 15.0069Z"
              fill="#006649"/>
    </g>
    <defs>
        <clipPath id="clip0_120_16">
            <rect width="25.5164" height="25.5164" fill="white"/>
        </clipPath>
    </defs>
</svg>
